<svg xmlns="http://www.w3.org/2000/svg" viewBox="0 0 512 512" class="injected-svg" data-src="/static/media/truck.17d686558895510bcc61a7b5cb94587f.svg"><path style="fill:#8a8a8a" d="M400.8 124.7h-90.6V57H39.3c-15.6 0-28.1 12.5-28.1 28.1v261.5c0 15.6 12.5 28.1 28.1 28.1h32.4c-.8 4.1-1.2 8.2-1.2 12.5 0 37.5 30.2 67.7 67.7 67.7s68.8-30.2 67.7-67.7c0-4.3-.4-8.4-1.2-12.5H329c-.8 4.1-1.2 8.2-1.2 12.5 0 37.5 30.2 67.7 67.7 67.7s67.7-30.2 67.7-67.7c0-4.3-.4-8.4-1.2-12.5h10.5c15.6 0 28.1-12.5 28.1-29.2v-96.9l-99.8-123.9zM138.3 435.2c-26 0-47.9-21.9-47.9-47.9s21.9-47.9 47.9-47.9c27.1 0 47.9 21.9 47.9 47.9s-21.9 47.9-47.9 47.9zm59-81.3c-11.6-20.5-33.6-34.4-59-34.4s-47.4 13.8-59 34.4h-40c-4.2 0-7.3-3.1-7.3-7.3V85.2c0-4.2 3.1-7.3 7.3-7.3h251.1V354h-93.1zm198.3 81.2c-26 0-47.9-21.9-47.9-47.9s21.9-47.9 47.9-47.9 47.9 21.9 47.9 47.9-21.9 47.9-47.9 47.9zm85.4-89.6c0 4.2-4.2 8.3-8.3 8.3h-18.1c-11.6-20.5-33.6-34.4-59-34.4s-47.4 13.8-59 34.4h-25.4V144.4h80.2L481 255.9v89.6z"/></svg>